<svg  viewBox="0 0 32 32" fill="none" xmlns="http://www.w3.org/2000/svg">
    <g clip-path="url(#clip0)">
        <path d="M2.37567 1.17822C1.99602 1.67896 1.78467 2.29492 1.78467 2.9541V29.0449C1.78467 29.6572 1.96764 30.2324 2.29812 30.7129L16.5222 15.9053L2.37567 1.17822Z" fill="#95C0BC"/>
        <path d="M17.8245 14.5496L22.4389 9.74587L6.21854 0.399433C5.51452 -0.00632856 4.70679 -0.10252 3.95312 0.108906L17.8245 14.5496Z" fill="#95C0BC"/>
        <path d="M17.8245 17.2612L3.81299 31.8477C4.11509 31.949 4.42771 32 4.74058 32C5.24816 32 5.75599 31.8667 6.21857 31.6001L22.5556 22.1863L17.8245 17.2612Z" fill="#95C0BC"/>
        <path d="M28.8579 13.4451L24.1157 10.7124L19.127 15.9055L24.2321 21.2205L28.8579 18.5549C29.7835 18.0217 30.3361 17.0664 30.3361 16C30.3361 14.9334 29.7835 13.9783 28.8579 13.4451Z" fill="#95C0BC"/>
    </g>
    <defs>
        <clipPath id="clip0">
            <rect width="32" height="32" fill="white"/>
        </clipPath>
    </defs>
</svg>
