<svg  viewBox="0 0 30 28" fill="none" xmlns="http://www.w3.org/2000/svg">
    <path d="M10.0257 28C4.66778 27.9692 0.23584 17.0319 0.23584 11.4618C0.23584 2.3631 7.06143 0.371148 9.69196 0.371148C10.8774 0.371148 12.1433 0.836687 13.2598 1.24865C14.0405 1.53602 14.848 1.83266 15.2971 1.83266C15.5659 1.83266 16.1993 1.58031 16.7586 1.3589C17.9513 0.884078 19.4354 0.293945 21.1637 0.293945C21.1668 0.293945 21.171 0.293945 21.174 0.293945C22.4645 0.293945 26.3774 0.577164 28.7298 4.10995L29.2809 4.93802L28.4878 5.53645C27.3549 6.3913 25.2877 7.9507 25.2877 11.0396C25.2877 14.698 27.6288 16.105 28.7535 16.7817C29.25 17.0804 29.7639 17.3883 29.7639 18.0619C29.7639 18.5017 26.2538 27.9455 21.1565 27.9455C19.9092 27.9455 19.0276 27.5706 18.2499 27.2399C17.463 26.9052 16.7842 26.6168 15.6626 26.6168C15.0941 26.6168 14.3751 26.8856 13.614 27.171C12.5739 27.5592 11.3965 28 10.0607 28H10.0257Z" fill="#95C0BC"/>
</svg>
