<svg  viewBox="0 0 18 17" fill="none" xmlns="http://www.w3.org/2000/svg">
    <path fill-rule="evenodd" clip-rule="evenodd" d="M0.73913 0C0.33092 0 0 0.33092 0 0.73913C0 1.14734 0.33092 1.47826 0.73913 1.47826H3.0898L3.70449 4.5494C3.70776 4.57044 3.71192 4.59118 3.71693 4.61159L4.95155 10.7801L4.95167 10.7807C5.05315 11.2909 5.33078 11.7492 5.73601 12.0754C6.13937 12.4001 6.64358 12.5733 7.16117 12.5652H14.3327C14.8503 12.5733 15.3545 12.4001 15.7579 12.0754C16.1633 11.749 16.441 11.2905 16.5424 10.7801L16.5424 10.7801L16.5434 10.7745L17.726 4.57324C17.7673 4.35686 17.7099 4.13335 17.5695 3.96363C17.4291 3.7939 17.2203 3.69565 17 3.69565H5.04119L4.42041 0.594071C4.35127 0.248633 4.04794 0 3.69565 0H0.73913ZM6.40128 10.491L5.33706 5.17391H16.1066L15.092 10.4944C15.0578 10.6636 14.9655 10.8156 14.8309 10.9239C14.6958 11.0326 14.5267 11.0904 14.3533 11.0871L14.3391 11.087H7.15478L7.14062 11.0871C6.96718 11.0904 6.7981 11.0326 6.66297 10.9239C6.52785 10.8151 6.43529 10.6622 6.40149 10.4921L6.40128 10.491ZM5.17391 15.5217C5.17391 14.7053 5.83575 14.0435 6.65217 14.0435C7.4686 14.0435 8.13043 14.7053 8.13043 15.5217C8.13043 16.3382 7.4686 17 6.65217 17C5.83575 17 5.17391 16.3382 5.17391 15.5217ZM13.3043 15.5217C13.3043 14.7053 13.9662 14.0435 14.7826 14.0435C15.599 14.0435 16.2609 14.7053 16.2609 15.5217C16.2609 16.3382 15.599 17 14.7826 17C13.9662 17 13.3043 16.3382 13.3043 15.5217Z" fill="#F86140"/>
</svg>
