<svg width="39" height="39" viewBox="0 0 39 39" fill="none" xmlns="http://www.w3.org/2000/svg">
<path d="M32.9188 16.1407L33.5515 17.9199C33.5787 17.9961 33.6323 18.0564 33.6999 18.0869L35.2806 18.7991C35.504 18.8998 35.504 19.2556 35.2806 19.3562L33.6999 20.0684C33.6322 20.0989 33.5786 20.1593 33.5515 20.2354L32.9188 22.0147C32.8294 22.266 32.5132 22.266 32.4239 22.0147L31.7911 20.2354C31.764 20.1593 31.7104 20.0989 31.6427 20.0684L30.062 19.3562C29.8387 19.2556 29.8387 18.8998 30.062 18.7991L31.6427 18.0869C31.7105 18.0565 31.7641 17.9961 31.7911 17.9199L32.4239 16.1407C32.5132 15.8893 32.8294 15.8893 32.9188 16.1407Z" fill="white"/>
<path d="M5.92703 10.4851L6.3964 11.8048C6.41651 11.8614 6.45627 11.9061 6.50647 11.9288L7.67906 12.4571C7.84473 12.5317 7.84473 12.7957 7.67906 12.8703L6.50647 13.3986C6.45627 13.4212 6.41651 13.466 6.3964 13.5225L5.92703 14.8423C5.86068 15.0287 5.62622 15.0287 5.55988 14.8423L5.09051 13.5225C5.0704 13.466 5.03064 13.4212 4.98044 13.3986L3.80785 12.8702C3.64218 12.7956 3.64218 12.5317 3.80785 12.457L4.98044 11.9287C5.03064 11.9061 5.0704 11.8613 5.09051 11.8048L5.55988 10.485C5.62622 10.2986 5.86068 10.2986 5.92703 10.4851Z" fill="white"/>
<path d="M6.82812 8.53758C7.34156 8.53758 7.75779 8.12135 7.75779 7.6079C7.75779 7.09445 7.34156 6.67822 6.82812 6.67822C6.31467 6.67822 5.89844 7.09445 5.89844 7.6079C5.89844 8.12135 6.31467 8.53758 6.82812 8.53758Z" fill="white"/>
<path d="M36.9593 9.55013C37.0815 8.80154 36.5736 8.09569 35.825 7.97358C35.0764 7.85147 34.3706 8.35933 34.2484 9.10793C34.1263 9.85652 34.6342 10.5624 35.3828 10.6845C36.1314 10.8066 36.8372 10.2987 36.9593 9.55013Z" fill="white"/>
<path d="M26.102 26.3536C26.5738 25.7553 26.8002 24.9582 26.6366 24.122C26.5435 23.6457 26.321 23.2004 25.9961 22.8398C25.4191 22.1996 24.6125 21.8745 23.7698 21.931C23.7544 21.932 23.7392 21.9335 23.724 21.9354L22.0034 22.1553V17.462C22.1015 17.489 22.2008 17.5131 22.3018 17.5323C22.539 17.5776 22.7772 17.5998 23.0135 17.5998C23.7604 17.5998 24.4899 17.3769 25.121 16.9477C26.8364 15.7813 27.2829 13.4368 26.1165 11.7215C25.9916 11.5379 25.8188 11.3538 25.6105 11.1716C25.9442 11.1369 26.2418 11.0746 26.4832 10.976C28.4031 10.191 29.3265 7.9902 28.5415 6.07021C27.7565 4.15022 25.5559 3.22664 23.6357 4.01182C23.597 4.02766 23.5577 4.0461 23.5182 4.06514C23.5322 3.95964 23.5404 3.85795 23.5404 3.76198C23.5404 1.68766 21.8528 0 19.7785 0C17.7042 0 16.0166 1.68766 16.0166 3.76198C16.0166 3.84401 16.0237 3.93085 16.034 4.01989C16.0017 4.00451 15.9692 3.98836 15.9375 3.97518C14.0214 3.18056 11.816 4.09325 11.0216 6.00935C10.2271 7.92546 11.1395 10.1307 13.0557 10.9253C13.2916 11.0231 13.5821 11.0859 13.9072 11.1225C13.7116 11.2948 13.5486 11.4687 13.429 11.6423C12.7983 12.5578 12.6039 13.6843 12.8988 14.7725C13.0982 15.508 13.5216 16.1695 14.1069 16.6574C14.8013 17.2363 15.6479 17.5395 16.519 17.5395C16.748 17.5395 16.9786 17.5185 17.2086 17.4762C17.3252 17.4547 17.4399 17.4276 17.5526 17.3958V19.6073C17.1411 19.3635 16.6755 19.2339 16.1869 19.2339C16.1697 19.2339 16.1525 19.2343 16.1353 19.2355C16.0825 19.2388 15.2 19.2968 14.2306 19.4918C14.141 19.5084 13.3301 19.7203 13.1657 19.7661L10.004 20.6868C8.13213 21.1338 6.61494 22.6078 6.11647 24.3915L2.77793 24.423C2.3551 24.427 2.0156 24.7731 2.01957 25.1959C2.02353 25.6162 2.36554 25.9543 2.78502 25.9543H2.79241L6.74771 25.9168C7.12933 25.9131 7.45009 25.629 7.4996 25.2506C7.69087 23.7903 8.8729 22.5246 10.3741 22.1728C10.3873 22.1697 10.4005 22.1662 10.4134 22.1625C10.4134 22.1625 13.8891 21.1554 14.0395 21.1051C14.9752 20.8626 16.0352 20.7779 16.2076 20.7654C16.6352 20.7725 16.9252 21.0024 17.0941 21.1958C17.3439 21.4819 17.4879 21.8704 17.4895 22.2624L17.4773 23.4318C17.4599 23.9665 18.0392 24.3584 18.5283 24.1499C18.5309 24.1532 18.5339 24.1563 18.5363 24.1596C18.5638 24.1491 19.0326 24.0816 19.0589 24.0752L23.8926 23.4577C24.3065 23.4369 24.6994 23.6249 24.9508 23.9818C25.0149 24.0728 25.0649 24.174 25.0984 24.2802C25.349 25.0731 24.7809 25.8281 24.0113 25.8653C24.0003 25.8658 23.9894 25.8666 23.9785 25.8676L20.3498 26.1997C19.3835 26.2695 19.4501 27.8594 20.4219 27.8376L25.5136 27.8212H25.5189C25.7136 27.8212 25.9078 27.864 26.078 27.9587C26.4805 28.1826 26.7109 28.5811 26.7117 29.0152C26.7128 29.6747 26.1772 30.2122 25.5166 30.2133L20.3119 30.2299C19.9293 30.2311 19.588 30.5026 19.5332 30.8813C19.4649 31.3536 19.8282 31.7593 20.2875 31.7612C21.0626 31.7693 22.7783 31.7621 23.5663 31.7557C25.0242 31.7579 25.0268 33.9785 23.569 33.9844L18.6805 34.0005C18.221 34.002 17.8573 34.4079 17.9256 34.8805C17.9805 35.2595 18.3225 35.5312 18.7055 35.5318L22.496 35.538C23.0212 35.5697 23.4267 36.0191 23.4026 36.5466C23.3908 36.8043 23.2794 37.0422 23.0888 37.2161C22.8981 37.39 22.6509 37.4782 22.4006 37.468L10.8741 36.8312C10.86 36.8304 10.8459 36.83 10.8319 36.83C10.8295 36.8299 10.8271 36.83 10.8247 36.83C9.3652 36.83 8.08726 35.8974 7.64349 34.5078C7.54248 34.1916 7.24922 33.9765 6.91719 33.9751L2.7969 33.9586H2.79378C2.46669 33.9586 2.16681 34.1629 2.06771 34.4746C1.90028 35.0016 2.28792 35.4878 2.79073 35.4898L6.3884 35.5043C7.16802 37.2306 8.87915 38.356 10.8104 38.3614L22.3234 38.9973C22.3624 38.999 22.4013 38.9999 22.4401 38.9999C23.1431 38.9999 23.8069 38.7087 24.2908 38.177C24.5978 37.8398 24.8073 37.4211 24.8909 36.9728C25.0041 36.3662 24.8931 35.7834 24.6243 35.2974C25.0232 35.1237 25.3793 34.8501 25.6614 34.4893C25.9514 34.1186 26.1363 33.6725 26.1933 33.2053C26.2577 32.6783 26.169 32.1638 25.9477 31.7105C27.2488 31.5025 28.2452 30.3711 28.243 29.0126C28.2406 27.7119 27.3236 26.6225 26.102 26.3536ZM24.26 15.6815C23.7673 16.0166 23.1736 16.1396 22.5883 16.0282C22.003 15.9167 21.4961 15.584 21.1611 15.0913C21.161 15.0913 21.161 15.0913 21.161 15.0913C20.9039 14.7133 20.7384 13.8059 20.6431 12.7448C21.543 12.5236 22.3117 11.966 22.8077 11.213C23.7824 11.6998 24.5885 12.1979 24.8501 12.5827C25.5419 13.5997 25.2771 14.9899 24.26 15.6815ZM24.2152 5.42907C25.3538 4.96389 26.6586 5.51119 27.1241 6.64958C27.5896 7.78812 27.0421 9.09309 25.9036 9.55858C25.4655 9.73774 24.4927 9.70315 23.3878 9.56429C23.3983 9.45217 23.4043 9.33867 23.4043 9.2238C23.4043 8.36542 23.1039 7.57621 22.6034 6.95449C23.2267 6.19087 23.8168 5.59201 24.2152 5.42907ZM19.7785 1.53128C21.0084 1.53128 22.0091 2.53195 22.0091 3.76198C22.0091 4.2005 21.6656 4.99451 21.1804 5.88024C20.7489 5.69857 20.2752 5.59795 19.7784 5.59795C19.2815 5.59795 18.8077 5.69857 18.376 5.88032C17.8911 4.99489 17.5478 4.20103 17.5478 3.76198C17.5478 2.53195 18.5485 1.53128 19.7785 1.53128ZM19.7784 6.51673C21.2712 6.51673 22.4856 7.73114 22.4856 9.22388C22.4856 10.7166 21.2712 11.931 19.7784 11.931C18.2857 11.931 17.0713 10.7166 17.0713 9.22388C17.0713 7.73114 18.2858 6.51673 19.7784 6.51673ZM13.6421 9.51082C13.0917 9.28261 12.6631 8.85376 12.4354 8.30311C12.2076 7.75262 12.2078 7.14629 12.436 6.59588C12.7917 5.7381 13.624 5.2196 14.4995 5.2196C14.7837 5.2196 15.0725 5.27429 15.3509 5.38969C15.7511 5.5556 16.3431 6.16398 16.9668 6.93751C16.4582 7.56181 16.1526 8.35765 16.1526 9.2238C16.1526 9.32648 16.158 9.42787 16.1664 9.52834C15.0577 9.66263 14.0811 9.69279 13.6421 9.51082ZM16.931 15.9703C16.345 16.0781 15.7521 15.9516 15.2615 15.6135C14.7708 15.2755 14.4411 14.7666 14.3332 14.1807C14.2252 13.5947 14.3519 13.0018 14.6899 12.5112H14.69C14.9519 12.1309 15.7505 11.6421 16.7181 11.1646C17.2089 11.9358 17.9824 12.5102 18.892 12.7397C18.7899 13.7825 18.6199 14.6702 18.364 15.0419C18.0259 15.5326 17.517 15.8623 16.931 15.9703ZM19.6249 15.9106C19.6687 15.8469 19.7099 15.776 19.7497 15.702C19.7955 15.7919 19.8433 15.8767 19.8947 15.9522C20.0628 16.1993 20.2569 16.4219 20.472 16.6185V22.3509L19.0837 22.5282V16.5362C19.284 16.3499 19.466 16.1412 19.6249 15.9106Z" fill="white"/>
<path d="M9.6639 26.4593C9.56221 26.4593 9.45885 26.4389 9.3596 26.3959C8.97165 26.2276 8.79356 25.7768 8.9619 25.3888C9.19278 24.8565 9.50272 24.2479 10.0505 23.7702C10.3691 23.4923 10.8528 23.5252 11.1307 23.8439C11.4088 24.1626 11.3757 24.6462 11.0571 24.9242C10.7399 25.2009 10.5378 25.6039 10.3667 25.9983C10.2414 26.2869 9.95968 26.4593 9.6639 26.4593Z" fill="white"/>
<path d="M12.828 23.8862C12.4962 23.8862 12.1905 23.6688 12.0932 23.3343C11.975 22.9283 12.2084 22.5034 12.6144 22.3852C12.8869 22.3059 13.1676 22.2425 13.4487 22.1966C13.866 22.1285 14.2594 22.4118 14.3275 22.8292C14.3956 23.2464 14.1124 23.64 13.6951 23.708C13.475 23.7439 13.2553 23.7935 13.0423 23.8555C12.9708 23.8762 12.8989 23.8862 12.828 23.8862Z" fill="white"/>
</svg>
