<svg width="36" height="36" viewBox="0 0 36 36" fill="none" xmlns="http://www.w3.org/2000/svg">
<g clip-path="url(#clip0)">
<path d="M34.778 16.63L32.3266 15.5691L30.2449 11.5183C29.6823 10.4091 28.541 9.71789 27.2952 9.72593H23.7105V8.71322C23.7105 6.8807 22.2477 5.38574 20.4152 5.38574H3.27947C1.44694 5.38574 0.000213858 6.88873 0.000213858 8.71322V24.2254C-0.0158609 25.3426 0.876288 26.2588 1.99348 26.2749C2.00152 26.2749 2.00956 26.2749 2.02563 26.2749H2.45162C2.45162 26.3553 2.44358 26.3874 2.44358 26.4357C2.43554 28.7343 4.29218 30.6071 6.59087 30.6151C8.88956 30.6231 10.7623 28.7665 10.7703 26.4678C10.7703 26.4517 10.7703 26.4437 10.7703 26.4276C10.7703 26.3714 10.7703 26.3472 10.7623 26.2669H24.6107C24.6107 26.3472 24.6107 26.3794 24.6107 26.4276C24.6026 28.7263 26.4593 30.599 28.758 30.6071C31.0567 30.6151 32.9294 28.7585 32.9374 26.4598C32.9374 26.4437 32.9374 26.4357 32.9374 26.4196C32.9374 26.3633 32.9374 26.3392 32.9374 26.2588H33.9742C35.0914 26.2588 35.9997 25.3506 35.9997 24.2334C35.9997 24.2254 35.9997 24.2173 35.9997 24.2013V18.4947C36.0157 17.7071 35.5335 16.9596 34.778 16.63ZM6.61498 29.0157C5.2004 29.0157 4.05909 27.8743 4.05909 26.4598C4.05909 25.0452 5.2004 23.9039 6.61498 23.9039C8.02956 23.9039 9.17087 25.0452 9.17087 26.4598C9.17087 27.8663 8.02152 29.0157 6.61498 29.0157ZM22.103 24.6835H10.3845C9.70937 23.2127 8.23049 22.2723 6.61498 22.2803C4.99143 22.2723 3.52059 23.2046 2.84545 24.6835H2.02563C1.77648 24.6835 1.60769 24.4906 1.60769 24.2414V20.1022H22.103V24.6835ZM22.103 8.72126V18.4947H1.60769V8.72126C1.60769 7.78088 2.33909 7.00126 3.27947 7.00126H20.4152C21.3555 7.00929 22.1111 7.78088 22.103 8.71322V8.72126ZM23.7105 11.3414H27.2952C27.9301 11.3334 28.5249 11.679 28.8223 12.2497L30.4297 15.3601H23.7105V11.3414ZM28.7821 29.0157C27.3675 29.0157 26.2262 27.8743 26.2262 26.4598C26.2262 25.0452 27.3675 23.9039 28.7821 23.9039C30.1967 23.9039 31.338 25.0452 31.338 26.4598C31.338 27.8663 30.1967 29.0157 28.7821 29.0157ZM34.4002 24.2414C34.4002 24.4906 34.2314 24.6835 33.9823 24.6835H32.5516C31.5791 22.6018 29.1036 21.7016 27.0219 22.6742C26.1378 23.0841 25.4225 23.7994 25.0125 24.6835H23.7105V16.9676H31.5871L34.143 18.0928C34.3038 18.1732 34.4082 18.35 34.4002 18.5269V24.2414Z" fill="#F86140"/>
</g>
<defs>
<clipPath id="clip0">
<rect width="36" height="36" fill="white"/>
</clipPath>
</defs>
</svg>
