<svg viewBox="0 0 17 17" fill="none" xmlns="http://www.w3.org/2000/svg">
    <path fill-rule="evenodd" clip-rule="evenodd" d="M14.9472 5.83774C17 5.92022 17 7.53315 17 8.50458C17 9.47601 17 11.0798 14.938 11.1806C15.497 11.7854 15.6987 12.3811 15.552 12.986C15.4146 13.5725 14.938 14.0857 14.5073 14.5164C14.0766 14.9472 13.5725 15.4146 12.9768 15.5612C12.8485 15.5887 12.7202 15.607 12.5919 15.607C12.1154 15.607 11.6388 15.3871 11.1623 14.9472C11.0798 17 9.46685 17 8.49542 17C7.52399 17 5.92022 17 5.82857 14.9472C5.34286 15.3871 4.87547 15.607 4.39892 15.607C4.27062 15.607 4.14232 15.5887 4.01402 15.5612C3.42749 15.4146 2.91429 14.9472 2.48356 14.5164C1.79623 13.8291 0.659838 12.6836 2.05283 11.1714C1.22803 11.1348 0.659838 10.8598 0.339084 10.3283C0.0274933 9.80593 0 9.10943 0 8.50458C0 7.53315 0 5.92022 2.05283 5.82857C0.659838 4.30728 1.79623 3.17089 2.48356 2.48356C3.17089 1.79623 4.31644 0.659838 5.82857 2.05283C5.92022 0 7.53315 0 8.50458 0C9.47601 0 11.0798 0 11.1714 2.07116C12.6927 0.678167 13.8291 1.81456 14.5164 2.50189C14.9472 2.93261 15.4146 3.43666 15.5612 4.03234C15.7078 4.6372 15.5062 5.22372 14.9472 5.83774ZM11.5288 2.66685C11.3822 2.81348 11.2447 2.97844 11.0981 3.16173C10.9606 4.04151 10.6491 4.98545 10.2092 5.7186C10.7407 6.04852 11.1714 6.5159 11.4464 7.0841C12.4178 6.85499 13.6092 6.21348 14.3423 5.48032C14.9747 4.84798 14.9655 4.43558 14.9013 4.18814C14.8005 3.8124 14.4798 3.42749 14.0307 2.97844C13.041 1.98868 12.4728 1.72291 11.5288 2.66685ZM5.92938 8.50458C5.92938 9.92507 7.0841 11.0798 8.50458 11.0798C9.92507 11.0798 11.0798 9.92507 11.0798 8.50458C11.0798 7.0841 9.92507 5.92938 8.50458 5.92938C7.0841 5.92938 5.92938 7.0841 5.92938 8.50458ZM10.4933 2.23612C10.4933 0.898113 9.90674 0.687332 8.50458 0.687332C7.10243 0.687332 6.5159 0.898113 6.5159 2.23612C6.5159 2.4469 6.53423 2.66685 6.56173 2.88679C7.0841 3.61078 7.53315 4.49973 7.73477 5.32453C7.98221 5.26954 8.23881 5.23288 8.50458 5.23288C8.88032 5.23288 9.23774 5.29703 9.57682 5.41617C10.0992 4.57305 10.4933 3.2717 10.4933 2.23612ZM4.41725 2.08032C3.97736 2.08032 3.54663 2.41024 2.97844 2.97844C1.98868 3.96819 1.72291 4.53639 2.66685 5.47116C2.81348 5.61779 2.97844 5.76442 3.16173 5.90189C4.04151 6.03935 4.98545 6.36011 5.7186 6.8C6.04852 6.26846 6.5159 5.83774 7.0841 5.5628C6.85499 4.59137 6.21348 3.4 5.48032 2.66685C5.07709 2.26361 4.74717 2.08032 4.41725 2.08032ZM0.687332 8.50458C0.687332 9.14609 0.733154 9.64097 0.934771 9.97089C1.06307 10.1908 1.34717 10.4841 2.23612 10.4933C2.4469 10.4933 2.66685 10.4749 2.88679 10.4474C3.61078 9.92507 4.49973 9.47601 5.32453 9.27439C5.26954 9.02695 5.23288 8.77035 5.23288 8.50458C5.23288 8.12884 5.29703 7.77143 5.41617 7.43234C4.57305 6.90997 3.2717 6.5159 2.23612 6.5159C0.898113 6.5159 0.687332 7.10243 0.687332 8.50458ZM5.47116 14.3423C5.61779 14.1957 5.76442 14.0307 5.90189 13.8474C6.03935 12.9585 6.36011 12.0146 6.79084 11.2906C6.2593 10.9606 5.82857 10.4841 5.55364 9.92507C4.58221 10.1542 3.39084 10.7957 2.65768 11.5288C1.71375 12.4728 1.97951 13.041 2.96927 14.0307C3.41833 14.4889 3.80323 14.8097 4.17898 14.9013C4.43558 14.9655 4.83881 14.9747 5.47116 14.3423ZM6.5159 14.7639C6.5159 16.1019 7.10243 16.3127 8.50458 16.3127C9.90674 16.3127 10.4841 16.1019 10.4933 14.7639C10.4933 14.5531 10.4749 14.3332 10.4474 14.1132C9.92507 13.3892 9.47601 12.5003 9.27439 11.6755C9.02695 11.7305 8.77035 11.7671 8.50458 11.7671C8.12884 11.7671 7.77143 11.703 7.43234 11.5838C6.90997 12.427 6.5159 13.7283 6.5159 14.7639ZM14.0216 14.0216C14.4798 13.5725 14.8005 13.1876 14.8922 12.8119C14.9563 12.5644 14.9655 12.152 14.3332 11.5288C14.1865 11.3822 14.0216 11.2356 13.8383 11.0981C12.9493 10.9606 12.0146 10.6399 11.2814 10.2C10.9515 10.7315 10.4841 11.1623 9.9159 11.4372C10.145 12.4086 10.7865 13.6 11.5197 14.3332C12.152 14.9655 12.5644 14.9563 12.8119 14.8922C13.1876 14.7914 13.5725 14.4706 14.0216 14.0216ZM11.593 9.56766C12.4361 10.09 13.7375 10.4841 14.773 10.4841C16.1019 10.4841 16.3127 9.90674 16.3218 8.50458C16.3218 7.10243 16.1019 6.5159 14.773 6.5159C14.5623 6.5159 14.3423 6.53423 14.1224 6.56173C13.3984 7.0841 12.5094 7.53315 11.6846 7.73477C11.7396 7.97305 11.7763 8.22965 11.7763 8.49542C11.7763 8.87116 11.7121 9.22857 11.593 9.56766ZM6.95579 8.50457C6.95579 7.65228 7.65229 6.95578 8.50458 6.95578C8.68787 6.95578 8.8345 7.12074 8.8345 7.30403C8.8345 7.48732 8.68787 7.64311 8.49541 7.64311C8.01886 7.64311 7.63396 8.02802 7.63396 8.50457C7.63396 8.68786 7.48733 8.84365 7.29488 8.84365C7.11159 8.84365 6.95579 8.69702 6.95579 8.50457Z" fill="#F86140"/>
</svg>
