<svg width="28" height="28" viewBox="0 0 28 28" fill="none" xmlns="http://www.w3.org/2000/svg">
<path d="M14.0013 0.66748C21.3656 0.66748 27.3346 6.63653 27.3346 14.0008C27.3346 21.3651 21.3656 27.3341 14.0013 27.3341C6.63702 27.3341 0.667969 21.3651 0.667969 14.0008C0.667969 6.63653 6.63702 0.66748 14.0013 0.66748ZM14.0013 2.66748C7.74159 2.66748 2.66797 7.7411 2.66797 14.0008C2.66797 20.2605 7.74159 25.3341 14.0013 25.3341C20.261 25.3341 25.3346 20.2605 25.3346 14.0008C25.3346 7.7411 20.261 2.66748 14.0013 2.66748ZM13.5501 7.46268C14.0564 7.46268 14.4748 7.83889 14.541 8.32699L14.5501 8.46268L14.5496 14.3561L19.0891 17.0652C19.5239 17.3246 19.6904 17.862 19.4972 18.3151L19.4356 18.4363C19.1762 18.8711 18.6388 19.0377 18.1857 18.8445L18.0645 18.7828L13.0378 15.7841C12.7786 15.6295 12.6054 15.3677 12.5612 15.0743L12.5501 14.9253V8.46268C12.5501 7.9104 12.9978 7.46268 13.5501 7.46268Z" fill="white"/>
</svg>
