<svg viewBox="0 0 15 16" fill="none" xmlns="http://www.w3.org/2000/svg">
    <path fill-rule="evenodd" clip-rule="evenodd" d="M4.74992 3.95833C4.74992 2.64666 5.81325 1.58333 7.12492 1.58333C8.4366 1.58333 9.49992 2.64666 9.49992 3.95833C9.49992 5.27001 8.4366 6.33333 7.12492 6.33333C5.81325 6.33333 4.74992 5.27001 4.74992 3.95833ZM7.12492 0C4.9388 0 3.16659 1.77221 3.16659 3.95833C3.16659 6.14446 4.9388 7.91667 7.12492 7.91667C9.31105 7.91667 11.0833 6.14446 11.0833 3.95833C11.0833 1.77221 9.31105 0 7.12492 0ZM3.95833 9.5C2.90852 9.5 1.9017 9.91704 1.15937 10.6594C0.417037 11.4017 0 12.4085 0 13.4583V15.0417C0 15.4789 0.354441 15.8333 0.791667 15.8333C1.22889 15.8333 1.58333 15.4789 1.58333 15.0417V13.4583C1.58333 12.8284 1.83356 12.2244 2.27895 11.779C2.72435 11.3336 3.32844 11.0833 3.95833 11.0833H10.2917C10.9216 11.0833 11.5256 11.3336 11.971 11.779C12.4164 12.2244 12.6667 12.8284 12.6667 13.4583V15.0417C12.6667 15.4789 13.0211 15.8333 13.4583 15.8333C13.8956 15.8333 14.25 15.4789 14.25 15.0417V13.4583C14.25 12.4085 13.833 11.4017 13.0906 10.6594C12.3483 9.91704 11.3415 9.5 10.2917 9.5H3.95833Z" fill="#F86140"/>
</svg>
